# xmcd
#
# Track frame offsets:
#	150
#	23687
#	38079
#	62040
#	71183
#	83769
#	92577
#	110060
#	122430
#	142278
#	164165
#	179699
#	193609
#	205287
#	224189
#	239284
#
# Disc length: 3401 seconds
#
# Revision: 0
# Processed by: cddbd v1.4PL0 Copyright (c) Steve Scherf et al.
# Submitted via: dBpowerAMP V4.0
#
DISCID=fa0d4710
DTITLE=Beck Clapton Page - Blue Eyed Blues
DYEAR=1900
DGENRE=Blues
TTITLE0=23 Hours Too long
TTITLE1=out on the water coast
TTITLE2=Five long yeas
TTITLE3=I ain't got you
TTITLE4=Good morning little school girl
TTITLE5=little red rooster (rehearsal)
TTITLE6=little red rooster
TTITLE7=highway 49
TTITLE8=wang dang doodle
TTITLE9=i'am a man
TTITLE10=the train kept a rolling
TTITLE11=Jeff's blues
TTITLE12=Steeled blues
TTITLE13=New York city blues
TTITLE14=It's a bloody life
TTITLE15=I see a man downstairs
EXTD=
EXTT0=
EXTT1=
EXTT2=
EXTT3=
EXTT4=
EXTT5=
EXTT6=
EXTT7=
EXTT8=
EXTT9=
EXTT10=
EXTT11=
EXTT12=
EXTT13=
EXTT14=
EXTT15=
PLAYORDER=
